# xmcd
#
# Track frame offsets:
#	150
#	14752
#	27160
#	44182
#	63244
#	79921
#	93242
#	112463
#	132468
#	149585
#	160829
#	171543
#	190388
#	206839
#	220131
#	233790
#	243147
#	255746
#	271395
#	282931
#
# Disc length: 3901 seconds
#
# Revision: 0
# Processed by: cddbd v1.5.2PL0 Copyright (c) Steve Scherf et al.
# Submitted via: audiograbber 1.83.01
#
DISCID=3e0f3b14
DTITLE=Verschiedene - Greatest Ever! Country
DYEAR=2017
DGENRE=Country
TTITLE0=Glen Campbell - Rhinestone Cowboy
TTITLE1=Jonny Cash - I Walk The Line
TTITLE2=Ryan Adams - New York, New York
TTITLE3=Bobbie Gentry - Ode To Billie Joe
TTITLE4=The Judds - I Will Stand By You
TTITLE5=Dr. Hook - When You're In Love With A Beautiful Woman
TTITLE6=Reba McEntire - The Night The Lights Went Out In Georgia
TTITLE7=Hal Ketchum - Past The Point Of Rescue
TTITLE8=Billy Currington - Let Me Down Easy
TTITLE9=Patti Page - A Poor Man's Roses
TTITLE10=Hank Locklin - Please Help Me I'm Falling
TTITLE11=Juice Newton - Angle Of The Morning
TTITLE12=Blake Shalton and Ashley Monroe - Lonely Tonight
TTITLE13=Hank Williams jr. - All My Rowdy Friends are Coming Over Tonight
TTITLE14=Frankie Ballard - Sunshine and Whiskey
TTITLE15=Webb Pierce - Honky Tonk Song
TTITLE16=Jimmy Dale and The Flatlanders - Dallas
TTITLE17=Kacey Musgraves - Marry Go Round
TTITLE18=Charlie Walker - Pick Me Up On Your Way Down
TTITLE19=Jimmy C. Newman - Alligator Man
EXTD=
EXTT0=
EXTT1=
EXTT2=
EXTT3=
EXTT4=
EXTT5=
EXTT6=
EXTT7=
EXTT8=
EXTT9=
EXTT10=
EXTT11=
EXTT12=
EXTT13=
EXTT14=
EXTT15=
EXTT16=
EXTT17=
EXTT18=
EXTT19=
PLAYORDER=
